<?xml version="1.0" encoding="utf-8"?>
<!-- Svg Vector Icons : http://www.onlinewebfonts.com/icon -->
<!DOCTYPE svg PUBLIC "-//W3C//DTD SVG 1.1//EN" "http://www.w3.org/Graphics/SVG/1.1/DTD/svg11.dtd">
<svg version="1.1" xmlns="http://www.w3.org/2000/svg" xmlns:xlink="http://www.w3.org/1999/xlink" x="0px" y="0px" viewBox="0 0 1000 1000" enable-background="new 0 0 1000 1000" xml:space="preserve">
<metadata> Svg Vector Icons : http://www.onlinewebfonts.com/icon </metadata>
<g><path d="M937.5,237.5h-875C33.5,237.5,10,261,10,290v420c0,29,23.5,52.5,52.5,52.5h875c29,0,52.5-23.5,52.5-52.5V290C990,261,966.5,237.5,937.5,237.5z M955,692.5c0,19.3-15.7,35-35,35H80c-19.3,0-35-15.7-35-35v-385c0-19.3,15.7-35,35-35h840c19.3,0,35,15.7,35,35V692.5z M132.5,605h42.8V395h-42.8V605z M330.1,536.7c0,0.7-0.3,2-1,4c-1.9,9.4-2.9,15.7-2.9,19.1h-1c0-5.4-1-13.1-2.9-23.1c-1.3-4-14.6-51.2-39.9-141.7h-63.3v210h38.9V484.4c0-15.4-0.7-33.2-1.9-53.3l1-1c0.6,2.7,2.3,8.4,4.9,17.1c2,8.7,3.2,14.7,3.9,18.1c1.9,7.4,15.9,53.9,41.9,139.7h37c24-83.1,37-129.3,38.9-138.7c2.6-8,5.5-20.1,8.8-36.2c-1.3,14.7-1.9,30.5-1.9,47.2V605h42.8V395h-66.2C343.8,484.8,331.4,532,330.1,536.7z M532.6,395l-77.9,210h45.8l16.6-48.2h80.8l16.5,48.2h46.7l-77.9-210H532.6z M526.8,523.6c16.2-48.2,24.7-73,25.3-74.4c1.9-6.7,3.6-13.1,4.9-19.1c0.6,2,1.9,6,3.9,12.1c0.6,2.7,1.3,4.7,1.9,6c0.6,2,9.4,27.1,26.3,75.4H526.8z M859.7,395h-49.7c-21.4,38.9-33.4,60.6-36,65.3c-5.2,9.4-8.4,15.1-9.7,17.1c-4.6-6.7-7.5-12.4-8.8-17.1c-1.9-3.3-14.6-25.1-38-65.3h-49.7l68.1,105.5l-75,104.5h50.6c27.3-42.9,41.9-66,43.8-69.3c0.6-0.7,2.3-3.3,4.9-8c1.3-2.7,2.3-4.4,2.9-5c3.9,6,6.5,10.4,7.8,13.1c1.9,2.7,16.5,25.8,43.8,69.3h52.6l-75.9-104.5L859.7,395z"/></g>
</svg>